{
  "accessors": [
    {
      "bufferView": 2,
      "componentType": 5126,
      "count": 33100,
      "max": [
        15.045845985412598,
        14.409440994262695,
        11.134719848632813
      ],
      "min": [
        -15.697415351867676,
        -15.31287956237793,
        -9.940988540649414
      ],
      "type": "VEC3"
    },
    {
      "bufferView": 2,
      "byteOffset": 397200,
      "componentType": 5126,
      "count": 33100,
      "max": [
        0.9997962117195129,
        0.9999295473098755,
        0.9999961256980896
      ],
      "min": [
        -0.9992348551750183,
        -0.9983806610107422,
        -0.9991313815116882
      ],
      "type": "VEC3"
    },
    {
      "bufferView": 3,
      "componentType": 5126,
      "count": 33100,
      "max": [
        0.7529411911964417,
        0.7529411911964417,
        0.7529411911964417,
        1.0
      ],
      "min": [
        0.7529411911964417,
        0.7529411911964417,
        0.7529411911964417,
        1.0
      ],
      "type": "VEC4"
    },
    {
      "bufferView": 1,
      "componentType": 5126,
      "count": 33100,
      "max": [
        0.7168430089950562,
        0.9131630063056946
      ],
      "min": [
        0.3132520020008087,
        0.03690600022673607
      ],
      "type": "VEC2"
    },
    {
      "bufferView": 0,
      "componentType": 5125,
      "count": 140640,
      "type": "SCALAR"
    },
    {
      "bufferView": 2,
      "byteOffset": 794400,
      "componentType": 5126,
      "count": 37256,
      "max": [
        11.479047775268555,
        14.607489585876465,
        11.127311706542969
      ],
      "min": [
        -16.240070343017578,
        -15.511990547180176,
        -9.373218536376953
      ],
      "type": "VEC3"
    },
    {
      "bufferView": 2,
      "byteOffset": 1241472,
      "componentType": 5126,
      "count": 37256,
      "max": [
        0.9996703863143921,
        0.9999803304672241,
        0.9999496340751648
      ],
      "min": [
        -0.9999598860740662,
        -0.9999963641166687,
        -0.9991118907928467
      ],
      "type": "VEC3"
    },
    {
      "bufferView": 3,
      "byteOffset": 529600,
      "componentType": 5126,
      "count": 37256,
      "max": [
        0.7529411911964417,
        0.7529411911964417,
        0.7529411911964417,
        1.0
      ],
      "min": [
        0.7529411911964417,
        0.7529411911964417,
        0.7529411911964417,
        1.0
      ],
      "type": "VEC4"
    },
    {
      "bufferView": 1,
      "byteOffset": 264800,
      "componentType": 5126,
      "count": 37256,
      "max": [
        0.6837999820709229,
        0.9124490022659302
      ],
      "min": [
        0.292928010225296,
        0.03707600012421608
      ],
      "type": "VEC2"
    },
    {
      "bufferView": 0,
      "byteOffset": 562560,
      "componentType": 5125,
      "count": 167097,
      "type": "SCALAR"
    },
    {
      "bufferView": 2,
      "byteOffset": 1688544,
      "componentType": 5126,
      "count": 13510,
      "max": [
        13.06516170501709,
        14.6365327835083,
        10.240340232849121
      ],
      "min": [
        -16.292346954345703,
        -12.379756927490234,
        -10.20670223236084
      ],
      "type": "VEC3"
    },
    {
      "bufferView": 2,
      "byteOffset": 1850664,
      "componentType": 5126,
      "count": 13510,
      "max": [
        0.9993588924407959,
        0.999958336353302,
        0.9993703365325928
      ],
      "min": [
        -0.9999902248382568,
        -0.9999794960021973,
        -0.9999940991401672
      ],
      "type": "VEC3"
    },
    {
      "bufferView": 3,
      "byteOffset": 1125696,
      "componentType": 5126,
      "count": 13510,
      "max": [
        0.7529411911964417,
        0.7529411911964417,
        0.7529411911964417,
        1.0
      ],
      "min": [
        0.7529411911964417,
        0.7529411911964417,
        0.7529411911964417,
        1.0
      ],
      "type": "VEC4"
    },
    {
      "bufferView": 1,
      "byteOffset": 562848,
      "componentType": 5126,
      "count": 13510,
      "max": [
        0.599901020526886,
        0.9316499829292297
      ],
      "min": [
        0.27598899602890015,
        0.02877799980342388
      ],
      "type": "VEC2"
    },
    {
      "bufferView": 0,
      "byteOffset": 1230948,
      "componentType": 5125,
      "count": 56316,
      "type": "SCALAR"
    },
    {
      "bufferView": 2,
      "byteOffset": 2012784,
      "componentType": 5126,
      "count": 14786,
      "max": [
        14.970181465148926,
        14.555240631103516,
        10.869597434997559
      ],
      "min": [
        -16.14617156982422,
        -15.308188438415527,
        -10.247566223144531
      ],
      "type": "VEC3"
    },
    {
      "bufferView": 2,
      "byteOffset": 2190216,
      "componentType": 5126,
      "count": 14786,
      "max": [
        0.9991663694381714,
        0.9997565150260925,
        0.9997328519821167
      ],
      "min": [
        -0.9999850988388062,
        -0.9996947646141052,
        -1.0
      ],
      "type": "VEC3"
    },
    {
      "bufferView": 3,
      "byteOffset": 1341856,
      "componentType": 5126,
      "count": 14786,
      "max": [
        0.7529411911964417,
        0.7529411911964417,
        0.7529411911964417,
        1.0
      ],
      "min": [
        0.7529411911964417,
        0.7529411911964417,
        0.7529411911964417,
        1.0
      ],
      "type": "VEC4"
    },
    {
      "bufferView": 1,
      "byteOffset": 670928,
      "componentType": 5126,
      "count": 14786,
      "max": [
        0.6986789703369141,
        0.9443070292472839
      ],
      "min": [
        0.3002850115299225,
        0.032641999423503876
      ],
      "type": "VEC2"
    },
    {
      "bufferView": 0,
      "byteOffset": 1456212,
      "componentType": 5125,
      "count": 60216,
      "type": "SCALAR"
    },
    {
      "bufferView": 2,
      "byteOffset": 2367648,
      "componentType": 5126,
      "count": 13816,
      "max": [
        15.659188270568848,
        14.524928092956543,
        10.845317840576172
      ],
      "min": [
        -15.916303634643555,
        -15.572834968566895,
        -10.255415916442871
      ],
      "type": "VEC3"
    },
    {
      "bufferView": 2,
      "byteOffset": 2533440,
      "componentType": 5126,
      "count": 13816,
      "max": [
        0.9986785054206848,
        0.9998490214347839,
        0.999828577041626
      ],
      "min": [
        -0.9992412328720093,
        -0.9999894499778748,
        -0.9999998807907104
      ],
      "type": "VEC3"
    },
    {
      "bufferView": 3,
      "byteOffset": 1578432,
      "componentType": 5126,
      "count": 13816,
      "max": [
        0.7529411911964417,
        0.7529411911964417,
        0.7529411911964417,
        1.0
      ],
      "min": [
        0.7529411911964417,
        0.7529411911964417,
        0.7529411911964417,
        1.0
      ],
      "type": "VEC4"
    },
    {
      "bufferView": 1,
      "byteOffset": 789216,
      "componentType": 5126,
      "count": 13816,
      "max": [
        0.6508679986000061,
        0.923799991607666
      ],
      "min": [
        0.3227649927139282,
        0.025730999186635017
      ],
      "type": "VEC2"
    },
    {
      "bufferView": 0,
      "byteOffset": 1697076,
      "componentType": 5125,
      "count": 57957,
      "type": "SCALAR"
    },
    {
      "bufferView": 2,
      "byteOffset": 2699232,
      "componentType": 5126,
      "count": 16076,
      "max": [
        15.680079460144043,
        12.716021537780762,
        10.175982475280762
      ],
      "min": [
        -6.8047308921813965,
        -15.588021278381348,
        -9.928674697875977
      ],
      "type": "VEC3"
    },
    {
      "bufferView": 2,
      "byteOffset": 2892144,
      "componentType": 5126,
      "count": 16076,
      "max": [
        0.9999617338180542,
        0.9999762177467346,
        0.9994135499000549
      ],
      "min": [
        -0.9999480247497559,
        -0.999967634677887,
        -0.9994393587112427
      ],
      "type": "VEC3"
    },
    {
      "bufferView": 3,
      "byteOffset": 1799488,
      "componentType": 5126,
      "count": 16076,
      "max": [
        0.7529411911964417,
        0.7529411911964417,
        0.7529411911964417,
        1.0
      ],
      "min": [
        0.7529411911964417,
        0.7529411911964417,
        0.7529411911964417,
        1.0
      ],
      "type": "VEC4"
    },
    {
      "bufferView": 1,
      "byteOffset": 899744,
      "componentType": 5126,
      "count": 16076,
      "max": [
        0.7152000069618225,
        0.9072399735450745
      ],
      "min": [
        0.4176329970359802,
        0.033163998275995255
      ],
      "type": "VEC2"
    },
    {
      "bufferView": 0,
      "byteOffset": 1928904,
      "componentType": 5125,
      "count": 68511,
      "type": "SCALAR"
    },
    {
      "bufferView": 2,
      "byteOffset": 3085056,
      "componentType": 5126,
      "count": 38587,
      "max": [
        15.66168212890625,
        12.75258731842041,
        11.148712158203125
      ],
      "min": [
        -14.56528377532959,
        -15.538617134094238,
        -10.008551597595215
      ],
      "type": "VEC3"
    },
    {
      "bufferView": 2,
      "byteOffset": 3548100,
      "componentType": 5126,
      "count": 38587,
      "max": [
        0.9999617338180542,
        0.9999954700469971,
        0.9999998807907104
      ],
      "min": [
        -0.9997305274009705,
        -0.9999927878379822,
        -0.9992809891700745
      ],
      "type": "VEC3"
    },
    {
      "bufferView": 3,
      "byteOffset": 2056704,
      "componentType": 5126,
      "count": 38587,
      "max": [
        0.7529411911964417,
        0.7529411911964417,
        0.7529411911964417,
        1.0
      ],
      "min": [
        0.7529411911964417,
        0.7529411911964417,
        0.7529411911964417,
        1.0
      ],
      "type": "VEC4"
    },
    {
      "bufferView": 1,
      "byteOffset": 1028352,
      "componentType": 5126,
      "count": 38587,
      "max": [
        0.7381839752197266,
        0.9129279851913452
      ],
      "min": [
        0.30688801407814026,
        0.036084000021219254
      ],
      "type": "VEC2"
    },
    {
      "bufferView": 0,
      "byteOffset": 2202948,
      "componentType": 5125,
      "count": 175464,
      "type": "SCALAR"
    },
    {
      "bufferView": 2,
      "byteOffset": 4011144,
      "componentType": 5126,
      "count": 3228,
      "max": [
        15.653302192687988,
        13.60155963897705,
        10.171029090881348
      ],
      "min": [
        -0.6876540184020996,
        -9.57214069366455,
        -10.12232780456543
      ],
      "type": "VEC3"
    },
    {
      "bufferView": 2,
      "byteOffset": 4049880,
      "componentType": 5126,
      "count": 3228,
      "max": [
        0.9999354481697083,
        0.9823266267776489,
        0.9994683861732483
      ],
      "min": [
        -0.9794269800186157,
        -0.9887354969978333,
        -0.9844685196876526
      ],
      "type": "VEC3"
    },
    {
      "bufferView": 3,
      "byteOffset": 2674096,
      "componentType": 5126,
      "count": 3228,
      "max": [
        0.7529411911964417,
        0.7529411911964417,
        0.7529411911964417,
        1.0
      ],
      "min": [
        0.7529411911964417,
        0.7529411911964417,
        0.7529411911964417,
        1.0
      ],
      "type": "VEC4"
    },
    {
      "bufferView": 1,
      "byteOffset": 1337048,
      "componentType": 5126,
      "count": 3228,
      "max": [
        0.7120469808578491,
        0.8382620215415955
      ],
      "min": [
        0.2965550124645233,
        0.08889999985694885
      ],
      "type": "VEC2"
    },
    {
      "bufferView": 0,
      "byteOffset": 2904804,
      "componentType": 5125,
      "count": 9891,
      "type": "SCALAR"
    },
    {
      "bufferView": 2,
      "byteOffset": 4088616,
      "componentType": 5126,
      "count": 3625,
      "max": [
        3.9849400520324707,
        7.605734825134277,
        10.79028034210205
      ],
      "min": [
        -15.283599853515625,
        -15.31287956237793,
        -9.943782806396484
      ],
      "type": "VEC3"
    },
    {
      "bufferView": 2,
      "byteOffset": 4132116,
      "componentType": 5126,
      "count": 3625,
      "max": [
        0.9616241455078125,
        0.9834916591644287,
        0.9976006150245667
      ],
      "min": [
        -0.9956845045089722,
        -0.9999555349349976,
        -0.996029257774353
      ],
      "type": "VEC3"
    },
    {
      "bufferView": 3,
      "byteOffset": 2725744,
      "componentType": 5126,
      "count": 3625,
      "max": [
        0.7529411911964417,
        0.7529411911964417,
        0.7529411911964417,
        1.0
      ],
      "min": [
        0.7529411911964417,
        0.7529411911964417,
        0.7529411911964417,
        1.0
      ],
      "type": "VEC4"
    },
    {
      "bufferView": 1,
      "byteOffset": 1362872,
      "componentType": 5126,
      "count": 3625,
      "max": [
        0.6226000189781189,
        0.8752999901771545
      ],
      "min": [
        0.22183500230312347,
        0.07803100347518921
      ],
      "type": "VEC2"
    },
    {
      "bufferView": 0,
      "byteOffset": 2944368,
      "componentType": 5125,
      "count": 13908,
      "type": "SCALAR"
    }
  ],
  "asset": {
    "extras": {
      "author": "lb19 (https://sketchfab.com/lb19)",
      "license": "CC-BY-4.0 (http://creativecommons.org/licenses/by/4.0/)",
      "source": "https://sketchfab.com/3d-models/rc796-volante-de-huso-8c99e4543eec4ae38d7176a70a772af8",
      "title": "RC796 - Volante de huso"
    },
    "generator": "Sketchfab-12.67.0",
    "version": "2.0"
  },
  "bufferViews": [
    {
      "buffer": 0,
      "byteLength": 3000000,
      "name": "floatBufferViews",
      "target": 34963
    },
    {
      "buffer": 0,
      "byteLength": 1391872,
      "byteOffset": 3000000,
      "byteStride": 8,
      "name": "floatBufferViews",
      "target": 34962
    },
    {
      "buffer": 0,
      "byteLength": 4175616,
      "byteOffset": 4391872,
      "byteStride": 12,
      "name": "floatBufferViews",
      "target": 34962
    },
    {
      "buffer": 0,
      "byteLength": 2783744,
      "byteOffset": 8567488,
      "byteStride": 16,
      "name": "floatBufferViews",
      "target": 34962
    }
  ],
  "buffers": [
    {
      "byteLength": 11351232,
      "uri": "scene.bin"
    }
  ],
  "images": [
    {
      "uri": "textures/material_0_baseColor.jpeg"
    },
    {
      "uri": "textures/material_1_baseColor.jpeg"
    },
    {
      "uri": "textures/material_2_baseColor.jpeg"
    },
    {
      "uri": "textures/material_3_baseColor.jpeg"
    },
    {
      "uri": "textures/material_4_baseColor.jpeg"
    },
    {
      "uri": "textures/material_5_baseColor.jpeg"
    },
    {
      "uri": "textures/material_6_baseColor.jpeg"
    },
    {
      "uri": "textures/material_7_baseColor.jpeg"
    },
    {
      "uri": "textures/material_8_baseColor.jpeg"
    }
  ],
  "materials": [
    {
      "doubleSided": true,
      "name": "material_0",
      "pbrMetallicRoughness": {
        "baseColorTexture": {
          "index": 0
        },
        "metallicFactor": 0.0
      }
    },
    {
      "doubleSided": true,
      "name": "material_1",
      "pbrMetallicRoughness": {
        "baseColorTexture": {
          "index": 1
        },
        "metallicFactor": 0.0
      }
    },
    {
      "doubleSided": true,
      "name": "material_2",
      "pbrMetallicRoughness": {
        "baseColorTexture": {
          "index": 2
        },
        "metallicFactor": 0.0
      }
    },
    {
      "doubleSided": true,
      "name": "material_3",
      "pbrMetallicRoughness": {
        "baseColorTexture": {
          "index": 3
        },
        "metallicFactor": 0.0
      }
    },
    {
      "doubleSided": true,
      "name": "material_4",
      "pbrMetallicRoughness": {
        "baseColorTexture": {
          "index": 4
        },
        "metallicFactor": 0.0
      }
    },
    {
      "doubleSided": true,
      "name": "material_5",
      "pbrMetallicRoughness": {
        "baseColorTexture": {
          "index": 5
        },
        "metallicFactor": 0.0
      }
    },
    {
      "doubleSided": true,
      "name": "material_6",
      "pbrMetallicRoughness": {
        "baseColorTexture": {
          "index": 6
        },
        "metallicFactor": 0.0
      }
    },
    {
      "doubleSided": true,
      "name": "material_7",
      "pbrMetallicRoughness": {
        "baseColorTexture": {
          "index": 7
        },
        "metallicFactor": 0.0
      }
    },
    {
      "doubleSided": true,
      "name": "material_8",
      "pbrMetallicRoughness": {
        "baseColorTexture": {
          "index": 8
        },
        "metallicFactor": 0.0
      }
    }
  ],
  "meshes": [
    {
      "name": "Object_0",
      "primitives": [
        {
          "attributes": {
            "COLOR_0": 2,
            "NORMAL": 1,
            "POSITION": 0,
            "TEXCOORD_0": 3
          },
          "indices": 4,
          "material": 0,
          "mode": 4
        }
      ]
    },
    {
      "name": "Object_1",
      "primitives": [
        {
          "attributes": {
            "COLOR_0": 7,
            "NORMAL": 6,
            "POSITION": 5,
            "TEXCOORD_0": 8
          },
          "indices": 9,
          "material": 1,
          "mode": 4
        }
      ]
    },
    {
      "name": "Object_2",
      "primitives": [
        {
          "attributes": {
            "COLOR_0": 12,
            "NORMAL": 11,
            "POSITION": 10,
            "TEXCOORD_0": 13
          },
          "indices": 14,
          "material": 2,
          "mode": 4
        }
      ]
    },
    {
      "name": "Object_3",
      "primitives": [
        {
          "attributes": {
            "COLOR_0": 17,
            "NORMAL": 16,
            "POSITION": 15,
            "TEXCOORD_0": 18
          },
          "indices": 19,
          "material": 3,
          "mode": 4
        }
      ]
    },
    {
      "name": "Object_4",
      "primitives": [
        {
          "attributes": {
            "COLOR_0": 22,
            "NORMAL": 21,
            "POSITION": 20,
            "TEXCOORD_0": 23
          },
          "indices": 24,
          "material": 4,
          "mode": 4
        }
      ]
    },
    {
      "name": "Object_5",
      "primitives": [
        {
          "attributes": {
            "COLOR_0": 27,
            "NORMAL": 26,
            "POSITION": 25,
            "TEXCOORD_0": 28
          },
          "indices": 29,
          "material": 5,
          "mode": 4
        }
      ]
    },
    {
      "name": "Object_6",
      "primitives": [
        {
          "attributes": {
            "COLOR_0": 32,
            "NORMAL": 31,
            "POSITION": 30,
            "TEXCOORD_0": 33
          },
          "indices": 34,
          "material": 6,
          "mode": 4
        }
      ]
    },
    {
      "name": "Object_7",
      "primitives": [
        {
          "attributes": {
            "COLOR_0": 37,
            "NORMAL": 36,
            "POSITION": 35,
            "TEXCOORD_0": 38
          },
          "indices": 39,
          "material": 7,
          "mode": 4
        }
      ]
    },
    {
      "name": "Object_8",
      "primitives": [
        {
          "attributes": {
            "COLOR_0": 42,
            "NORMAL": 41,
            "POSITION": 40,
            "TEXCOORD_0": 43
          },
          "indices": 44,
          "material": 8,
          "mode": 4
        }
      ]
    }
  ],
  "nodes": [
    {
      "children": [
        1
      ],
      "matrix": [
        1.0,
        0.0,
        0.0,
        0.0,
        0.0,
        2.220446049250313e-16,
        -1.0,
        0.0,
        0.0,
        1.0,
        2.220446049250313e-16,
        0.0,
        0.0,
        0.0,
        0.0,
        1.0
      ],
      "name": "Sketchfab_model"
    },
    {
      "children": [
        2,
        3,
        4,
        5,
        6,
        7,
        8,
        9,
        10
      ],
      "name": "Volante02.obj.cleaner.materialmerger.gles"
    },
    {
      "mesh": 0,
      "name": "Object_2"
    },
    {
      "mesh": 1,
      "name": "Object_3"
    },
    {
      "mesh": 2,
      "name": "Object_4"
    },
    {
      "mesh": 3,
      "name": "Object_5"
    },
    {
      "mesh": 4,
      "name": "Object_6"
    },
    {
      "mesh": 5,
      "name": "Object_7"
    },
    {
      "mesh": 6,
      "name": "Object_8"
    },
    {
      "mesh": 7,
      "name": "Object_9"
    },
    {
      "mesh": 8,
      "name": "Object_10"
    }
  ],
  "samplers": [
    {
      "magFilter": 9729,
      "minFilter": 9987,
      "wrapS": 10497,
      "wrapT": 10497
    }
  ],
  "scene": 0,
  "scenes": [
    {
      "name": "Sketchfab_Scene",
      "nodes": [
        0
      ]
    }
  ],
  "textures": [
    {
      "sampler": 0,
      "source": 0
    },
    {
      "sampler": 0,
      "source": 1
    },
    {
      "sampler": 0,
      "source": 2
    },
    {
      "sampler": 0,
      "source": 3
    },
    {
      "sampler": 0,
      "source": 4
    },
    {
      "sampler": 0,
      "source": 5
    },
    {
      "sampler": 0,
      "source": 6
    },
    {
      "sampler": 0,
      "source": 7
    },
    {
      "sampler": 0,
      "source": 8
    }
  ]
}
