{
  "accessors": [
    {
      "bufferView": 2,
      "componentType": 5126,
      "count": 35952,
      "max": [
        19.123023986816406,
        19.836523056030273,
        13.924356460571289
      ],
      "min": [
        -16.64179801940918,
        -21.120296478271484,
        -9.972394943237305
      ],
      "type": "VEC3"
    },
    {
      "bufferView": 2,
      "byteOffset": 431424,
      "componentType": 5126,
      "count": 35952,
      "max": [
        0.9991765022277832,
        0.9997317790985107,
        0.9999665021896362
      ],
      "min": [
        -0.9999970197677612,
        -0.999971330165863,
        -0.9996858835220337
      ],
      "type": "VEC3"
    },
    {
      "bufferView": 3,
      "componentType": 5126,
      "count": 35952,
      "max": [
        0.7529411911964417,
        0.7529411911964417,
        0.7529411911964417,
        1.0
      ],
      "min": [
        0.7529411911964417,
        0.7529411911964417,
        0.7529411911964417,
        1.0
      ],
      "type": "VEC4"
    },
    {
      "bufferView": 1,
      "componentType": 5126,
      "count": 35952,
      "max": [
        0.8230119943618774,
        0.9163529872894287
      ],
      "min": [
        0.26837098598480225,
        0.06931299716234207
      ],
      "type": "VEC2"
    },
    {
      "bufferView": 0,
      "componentType": 5125,
      "count": 153000,
      "type": "SCALAR"
    },
    {
      "bufferView": 2,
      "byteOffset": 862848,
      "componentType": 5126,
      "count": 29366,
      "max": [
        20.536334991455078,
        19.872798919677734,
        13.436219215393066
      ],
      "min": [
        -12.333950996398926,
        -20.761625289916992,
        -10.168061256408691
      ],
      "type": "VEC3"
    },
    {
      "bufferView": 2,
      "byteOffset": 1215240,
      "componentType": 5126,
      "count": 29366,
      "max": [
        0.9999771118164063,
        0.9997807741165161,
        0.9999490976333618
      ],
      "min": [
        -0.9987902641296387,
        -0.9999558925628662,
        -0.9981586337089539
      ],
      "type": "VEC3"
    },
    {
      "bufferView": 3,
      "byteOffset": 575232,
      "componentType": 5126,
      "count": 29366,
      "max": [
        0.7529411911964417,
        0.7529411911964417,
        0.7529411911964417,
        1.0
      ],
      "min": [
        0.7529411911964417,
        0.7529411911964417,
        0.7529411911964417,
        1.0
      ],
      "type": "VEC4"
    },
    {
      "bufferView": 1,
      "byteOffset": 287616,
      "componentType": 5126,
      "count": 29366,
      "max": [
        0.8056520223617554,
        0.9171429872512817
      ],
      "min": [
        0.27090901136398315,
        0.08506300300359726
      ],
      "type": "VEC2"
    },
    {
      "bufferView": 0,
      "byteOffset": 612000,
      "componentType": 5125,
      "count": 127275,
      "type": "SCALAR"
    },
    {
      "bufferView": 2,
      "byteOffset": 1567632,
      "componentType": 5126,
      "count": 12118,
      "max": [
        20.567432403564453,
        19.403745651245117,
        12.274467468261719
      ],
      "min": [
        -12.33215618133545,
        -16.522624969482422,
        -10.8177490234375
      ],
      "type": "VEC3"
    },
    {
      "bufferView": 2,
      "byteOffset": 1713048,
      "componentType": 5126,
      "count": 12118,
      "max": [
        0.9999813437461853,
        0.9998931288719177,
        0.9991728663444519
      ],
      "min": [
        -0.998148500919342,
        -0.9978304505348206,
        -0.997880220413208
      ],
      "type": "VEC3"
    },
    {
      "bufferView": 3,
      "byteOffset": 1045088,
      "componentType": 5126,
      "count": 12118,
      "max": [
        0.7529411911964417,
        0.7529411911964417,
        0.7529411911964417,
        1.0
      ],
      "min": [
        0.7529411911964417,
        0.7529411911964417,
        0.7529411911964417,
        1.0
      ],
      "type": "VEC4"
    },
    {
      "bufferView": 1,
      "byteOffset": 522544,
      "componentType": 5126,
      "count": 12118,
      "max": [
        0.6253470182418823,
        0.9165700078010559
      ],
      "min": [
        0.3038159906864166,
        0.09208899736404419
      ],
      "type": "VEC2"
    },
    {
      "bufferView": 0,
      "byteOffset": 1121100,
      "componentType": 5125,
      "count": 53286,
      "type": "SCALAR"
    },
    {
      "bufferView": 2,
      "byteOffset": 1858464,
      "componentType": 5126,
      "count": 23241,
      "max": [
        20.385644912719727,
        19.87186622619629,
        13.3851957321167
      ],
      "min": [
        -16.650896072387695,
        -20.886390686035156,
        -10.963961601257324
      ],
      "type": "VEC3"
    },
    {
      "bufferView": 2,
      "byteOffset": 2137356,
      "componentType": 5126,
      "count": 23241,
      "max": [
        0.9999405145645142,
        0.9999417662620544,
        0.9999977350234985
      ],
      "min": [
        -0.9997310042381287,
        -0.9998932480812073,
        -0.9999997615814209
      ],
      "type": "VEC3"
    },
    {
      "bufferView": 3,
      "byteOffset": 1238976,
      "componentType": 5126,
      "count": 23241,
      "max": [
        0.7529411911964417,
        0.7529411911964417,
        0.7529411911964417,
        1.0
      ],
      "min": [
        0.7529411911964417,
        0.7529411911964417,
        0.7529411911964417,
        1.0
      ],
      "type": "VEC4"
    },
    {
      "bufferView": 1,
      "byteOffset": 619488,
      "componentType": 5126,
      "count": 23241,
      "max": [
        0.8442839980125427,
        0.934715986251831
      ],
      "min": [
        0.306549996137619,
        0.04621899873018265
      ],
      "type": "VEC2"
    },
    {
      "bufferView": 0,
      "byteOffset": 1334244,
      "componentType": 5125,
      "count": 88620,
      "type": "SCALAR"
    },
    {
      "bufferView": 2,
      "byteOffset": 2416248,
      "componentType": 5126,
      "count": 23563,
      "max": [
        19.039867401123047,
        19.851909637451172,
        12.591997146606445
      ],
      "min": [
        -18.99808120727539,
        -21.120296478271484,
        -10.963961601257324
      ],
      "type": "VEC3"
    },
    {
      "bufferView": 2,
      "byteOffset": 2699004,
      "componentType": 5126,
      "count": 23563,
      "max": [
        0.9979468584060669,
        0.999788761138916,
        0.9998036623001099
      ],
      "min": [
        -0.9999014735221863,
        -0.9998048543930054,
        -0.9999997615814209
      ],
      "type": "VEC3"
    },
    {
      "bufferView": 3,
      "byteOffset": 1610832,
      "componentType": 5126,
      "count": 23563,
      "max": [
        0.7529411911964417,
        0.7529411911964417,
        0.7529411911964417,
        1.0
      ],
      "min": [
        0.7529411911964417,
        0.7529411911964417,
        0.7529411911964417,
        1.0
      ],
      "type": "VEC4"
    },
    {
      "bufferView": 1,
      "byteOffset": 805416,
      "componentType": 5126,
      "count": 23563,
      "max": [
        0.7972130179405212,
        0.9381200075149536
      ],
      "min": [
        0.2523140013217926,
        0.05296099931001663
      ],
      "type": "VEC2"
    },
    {
      "bufferView": 0,
      "byteOffset": 1688724,
      "componentType": 5125,
      "count": 93228,
      "type": "SCALAR"
    },
    {
      "bufferView": 2,
      "byteOffset": 2981760,
      "componentType": 5126,
      "count": 19992,
      "max": [
        12.235577583312988,
        19.79199981689453,
        12.722090721130371
      ],
      "min": [
        -19.316282272338867,
        -20.97446060180664,
        -10.759480476379395
      ],
      "type": "VEC3"
    },
    {
      "bufferView": 2,
      "byteOffset": 3221664,
      "componentType": 5126,
      "count": 19992,
      "max": [
        0.9999963641166687,
        0.9994702339172363,
        0.9991034865379333
      ],
      "min": [
        -0.9999753832817078,
        -0.9999314546585083,
        -0.9983607530593872
      ],
      "type": "VEC3"
    },
    {
      "bufferView": 3,
      "byteOffset": 1987840,
      "componentType": 5126,
      "count": 19992,
      "max": [
        0.7529411911964417,
        0.7529411911964417,
        0.7529411911964417,
        1.0
      ],
      "min": [
        0.7529411911964417,
        0.7529411911964417,
        0.7529411911964417,
        1.0
      ],
      "type": "VEC4"
    },
    {
      "bufferView": 1,
      "byteOffset": 993920,
      "componentType": 5126,
      "count": 19992,
      "max": [
        0.807200014591217,
        0.9206960201263428
      ],
      "min": [
        0.44279998540878296,
        0.07326199859380722
      ],
      "type": "VEC2"
    },
    {
      "bufferView": 0,
      "byteOffset": 2061636,
      "componentType": 5125,
      "count": 83781,
      "type": "SCALAR"
    },
    {
      "bufferView": 2,
      "byteOffset": 3461568,
      "componentType": 5126,
      "count": 33104,
      "max": [
        13.604257583618164,
        19.847440719604492,
        13.923290252685547
      ],
      "min": [
        -19.316282272338867,
        -21.110939025878906,
        -9.985776901245117
      ],
      "type": "VEC3"
    },
    {
      "bufferView": 2,
      "byteOffset": 3858816,
      "componentType": 5126,
      "count": 33104,
      "max": [
        0.9999771118164063,
        0.9998248815536499,
        0.9999174475669861
      ],
      "min": [
        -0.9999984502792358,
        -0.9997524619102478,
        -0.9984607696533203
      ],
      "type": "VEC3"
    },
    {
      "bufferView": 3,
      "byteOffset": 2307712,
      "componentType": 5126,
      "count": 33104,
      "max": [
        0.7529411911964417,
        0.7529411911964417,
        0.7529411911964417,
        1.0
      ],
      "min": [
        0.7529411911964417,
        0.7529411911964417,
        0.7529411911964417,
        1.0
      ],
      "type": "VEC4"
    },
    {
      "bufferView": 1,
      "byteOffset": 1153856,
      "componentType": 5126,
      "count": 33104,
      "max": [
        0.7883229851722717,
        0.9142510294914246
      ],
      "min": [
        0.25415000319480896,
        0.0624070018529892
      ],
      "type": "VEC2"
    },
    {
      "bufferView": 0,
      "byteOffset": 2396760,
      "componentType": 5125,
      "count": 140940,
      "type": "SCALAR"
    },
    {
      "bufferView": 2,
      "byteOffset": 4256064,
      "componentType": 5126,
      "count": 1825,
      "max": [
        6.109426021575928,
        19.623435974121094,
        12.781384468078613
      ],
      "min": [
        -8.270180702209473,
        -9.557535171508789,
        -9.740760803222656
      ],
      "type": "VEC3"
    },
    {
      "bufferView": 2,
      "byteOffset": 4277964,
      "componentType": 5126,
      "count": 1825,
      "max": [
        0.9963698983192444,
        0.9970606565475464,
        0.995992124080658
      ],
      "min": [
        -0.9929379820823669,
        -0.9999316334724426,
        -0.9854456186294556
      ],
      "type": "VEC3"
    },
    {
      "bufferView": 3,
      "byteOffset": 2837376,
      "componentType": 5126,
      "count": 1825,
      "max": [
        0.7529411911964417,
        0.7529411911964417,
        0.7529411911964417,
        1.0
      ],
      "min": [
        0.7529411911964417,
        0.7529411911964417,
        0.7529411911964417,
        1.0
      ],
      "type": "VEC4"
    },
    {
      "bufferView": 1,
      "byteOffset": 1418688,
      "componentType": 5126,
      "count": 1825,
      "max": [
        0.6681979894638062,
        0.42699599266052246
      ],
      "min": [
        0.4718810021877289,
        0.08236599713563919
      ],
      "type": "VEC2"
    },
    {
      "bufferView": 0,
      "byteOffset": 2960520,
      "componentType": 5125,
      "count": 7956,
      "type": "SCALAR"
    },
    {
      "bufferView": 2,
      "byteOffset": 4299864,
      "componentType": 5126,
      "count": 589,
      "max": [
        11.713558197021484,
        18.767499923706055,
        6.69937801361084
      ],
      "min": [
        -11.104462623596191,
        -21.048063278198242,
        -8.880911827087402
      ],
      "type": "VEC3"
    },
    {
      "bufferView": 2,
      "byteOffset": 4306932,
      "componentType": 5126,
      "count": 589,
      "max": [
        0.9909483790397644,
        0.9813042283058167,
        0.7496237754821777
      ],
      "min": [
        -0.9302768707275391,
        -0.9994062185287476,
        -0.9058589935302734
      ],
      "type": "VEC3"
    },
    {
      "bufferView": 3,
      "byteOffset": 2866576,
      "componentType": 5126,
      "count": 589,
      "max": [
        0.7529411911964417,
        0.7529411911964417,
        0.7529411911964417,
        1.0
      ],
      "min": [
        0.7529411911964417,
        0.7529411911964417,
        0.7529411911964417,
        1.0
      ],
      "type": "VEC4"
    },
    {
      "bufferView": 1,
      "byteOffset": 1433288,
      "componentType": 5126,
      "count": 589,
      "max": [
        0.746999979019165,
        0.8751000165939331
      ],
      "min": [
        0.35364198684692383,
        0.6410959959030151
      ],
      "type": "VEC2"
    },
    {
      "bufferView": 0,
      "byteOffset": 2992344,
      "componentType": 5125,
      "count": 1914,
      "type": "SCALAR"
    }
  ],
  "asset": {
    "extras": {
      "author": "LAAUA (https://sketchfab.com/LAAUA)",
      "license": "CC-BY-4.0 (http://creativecommons.org/licenses/by/4.0/)",
      "source": "https://sketchfab.com/3d-models/rc075-volante-de-huso-c7b4986fc0944d9e8d85f34b1bc22471",
      "title": "RC075 - Volante de huso"
    },
    "generator": "Sketchfab-12.68.0",
    "version": "2.0"
  },
  "bufferViews": [
    {
      "buffer": 0,
      "byteLength": 3000000,
      "name": "floatBufferViews",
      "target": 34963
    },
    {
      "buffer": 0,
      "byteLength": 1438000,
      "byteOffset": 3000000,
      "byteStride": 8,
      "name": "floatBufferViews",
      "target": 34962
    },
    {
      "buffer": 0,
      "byteLength": 4314000,
      "byteOffset": 4438000,
      "byteStride": 12,
      "name": "floatBufferViews",
      "target": 34962
    },
    {
      "buffer": 0,
      "byteLength": 2876000,
      "byteOffset": 8752000,
      "byteStride": 16,
      "name": "floatBufferViews",
      "target": 34962
    }
  ],
  "buffers": [
    {
      "byteLength": 11628000,
      "uri": "scene.bin"
    }
  ],
  "images": [
    {
      "uri": "textures/material_0_baseColor.jpeg"
    },
    {
      "uri": "textures/material_1_baseColor.jpeg"
    },
    {
      "uri": "textures/material_2_baseColor.jpeg"
    },
    {
      "uri": "textures/material_3_baseColor.jpeg"
    },
    {
      "uri": "textures/material_4_baseColor.jpeg"
    },
    {
      "uri": "textures/material_5_baseColor.jpeg"
    },
    {
      "uri": "textures/material_6_baseColor.jpeg"
    },
    {
      "uri": "textures/material_7_baseColor.jpeg"
    },
    {
      "uri": "textures/material_8_baseColor.jpeg"
    }
  ],
  "materials": [
    {
      "doubleSided": true,
      "name": "material_0",
      "pbrMetallicRoughness": {
        "baseColorTexture": {
          "index": 0
        },
        "metallicFactor": 0.0
      }
    },
    {
      "doubleSided": true,
      "name": "material_1",
      "pbrMetallicRoughness": {
        "baseColorTexture": {
          "index": 1
        },
        "metallicFactor": 0.0
      }
    },
    {
      "doubleSided": true,
      "name": "material_2",
      "pbrMetallicRoughness": {
        "baseColorTexture": {
          "index": 2
        },
        "metallicFactor": 0.0
      }
    },
    {
      "doubleSided": true,
      "name": "material_3",
      "pbrMetallicRoughness": {
        "baseColorTexture": {
          "index": 3
        },
        "metallicFactor": 0.0
      }
    },
    {
      "doubleSided": true,
      "name": "material_4",
      "pbrMetallicRoughness": {
        "baseColorTexture": {
          "index": 4
        },
        "metallicFactor": 0.0
      }
    },
    {
      "doubleSided": true,
      "name": "material_5",
      "pbrMetallicRoughness": {
        "baseColorTexture": {
          "index": 5
        },
        "metallicFactor": 0.0
      }
    },
    {
      "doubleSided": true,
      "name": "material_6",
      "pbrMetallicRoughness": {
        "baseColorTexture": {
          "index": 6
        },
        "metallicFactor": 0.0
      }
    },
    {
      "doubleSided": true,
      "name": "material_7",
      "pbrMetallicRoughness": {
        "baseColorTexture": {
          "index": 7
        },
        "metallicFactor": 0.0
      }
    },
    {
      "doubleSided": true,
      "name": "material_8",
      "pbrMetallicRoughness": {
        "baseColorTexture": {
          "index": 8
        },
        "metallicFactor": 0.0
      }
    }
  ],
  "meshes": [
    {
      "name": "Object_0",
      "primitives": [
        {
          "attributes": {
            "COLOR_0": 2,
            "NORMAL": 1,
            "POSITION": 0,
            "TEXCOORD_0": 3
          },
          "indices": 4,
          "material": 0,
          "mode": 4
        }
      ]
    },
    {
      "name": "Object_1",
      "primitives": [
        {
          "attributes": {
            "COLOR_0": 7,
            "NORMAL": 6,
            "POSITION": 5,
            "TEXCOORD_0": 8
          },
          "indices": 9,
          "material": 1,
          "mode": 4
        }
      ]
    },
    {
      "name": "Object_2",
      "primitives": [
        {
          "attributes": {
            "COLOR_0": 12,
            "NORMAL": 11,
            "POSITION": 10,
            "TEXCOORD_0": 13
          },
          "indices": 14,
          "material": 2,
          "mode": 4
        }
      ]
    },
    {
      "name": "Object_3",
      "primitives": [
        {
          "attributes": {
            "COLOR_0": 17,
            "NORMAL": 16,
            "POSITION": 15,
            "TEXCOORD_0": 18
          },
          "indices": 19,
          "material": 3,
          "mode": 4
        }
      ]
    },
    {
      "name": "Object_4",
      "primitives": [
        {
          "attributes": {
            "COLOR_0": 22,
            "NORMAL": 21,
            "POSITION": 20,
            "TEXCOORD_0": 23
          },
          "indices": 24,
          "material": 4,
          "mode": 4
        }
      ]
    },
    {
      "name": "Object_5",
      "primitives": [
        {
          "attributes": {
            "COLOR_0": 27,
            "NORMAL": 26,
            "POSITION": 25,
            "TEXCOORD_0": 28
          },
          "indices": 29,
          "material": 5,
          "mode": 4
        }
      ]
    },
    {
      "name": "Object_6",
      "primitives": [
        {
          "attributes": {
            "COLOR_0": 32,
            "NORMAL": 31,
            "POSITION": 30,
            "TEXCOORD_0": 33
          },
          "indices": 34,
          "material": 6,
          "mode": 4
        }
      ]
    },
    {
      "name": "Object_7",
      "primitives": [
        {
          "attributes": {
            "COLOR_0": 37,
            "NORMAL": 36,
            "POSITION": 35,
            "TEXCOORD_0": 38
          },
          "indices": 39,
          "material": 7,
          "mode": 4
        }
      ]
    },
    {
      "name": "Object_8",
      "primitives": [
        {
          "attributes": {
            "COLOR_0": 42,
            "NORMAL": 41,
            "POSITION": 40,
            "TEXCOORD_0": 43
          },
          "indices": 44,
          "material": 8,
          "mode": 4
        }
      ]
    }
  ],
  "nodes": [
    {
      "children": [
        1
      ],
      "matrix": [
        1.0,
        0.0,
        0.0,
        0.0,
        0.0,
        2.220446049250313e-16,
        -1.0,
        0.0,
        0.0,
        1.0,
        2.220446049250313e-16,
        0.0,
        0.0,
        0.0,
        0.0,
        1.0
      ],
      "name": "Sketchfab_model"
    },
    {
      "children": [
        2,
        3,
        4,
        5,
        6,
        7,
        8,
        9,
        10
      ],
      "name": "Volante01.obj.cleaner.materialmerger.gles"
    },
    {
      "mesh": 0,
      "name": "Object_2"
    },
    {
      "mesh": 1,
      "name": "Object_3"
    },
    {
      "mesh": 2,
      "name": "Object_4"
    },
    {
      "mesh": 3,
      "name": "Object_5"
    },
    {
      "mesh": 4,
      "name": "Object_6"
    },
    {
      "mesh": 5,
      "name": "Object_7"
    },
    {
      "mesh": 6,
      "name": "Object_8"
    },
    {
      "mesh": 7,
      "name": "Object_9"
    },
    {
      "mesh": 8,
      "name": "Object_10"
    }
  ],
  "samplers": [
    {
      "magFilter": 9729,
      "minFilter": 9987,
      "wrapS": 10497,
      "wrapT": 10497
    }
  ],
  "scene": 0,
  "scenes": [
    {
      "name": "Sketchfab_Scene",
      "nodes": [
        0
      ]
    }
  ],
  "textures": [
    {
      "sampler": 0,
      "source": 0
    },
    {
      "sampler": 0,
      "source": 1
    },
    {
      "sampler": 0,
      "source": 2
    },
    {
      "sampler": 0,
      "source": 3
    },
    {
      "sampler": 0,
      "source": 4
    },
    {
      "sampler": 0,
      "source": 5
    },
    {
      "sampler": 0,
      "source": 6
    },
    {
      "sampler": 0,
      "source": 7
    },
    {
      "sampler": 0,
      "source": 8
    }
  ]
}
